<svg xmlns="http://www.w3.org/2000/svg" width="64" height="64" fill="none" id="currency">
  <path fill="#D0D2E0" d="M44.236 11.058c-2.718 1.362-23.896 11.13-33.333 16.267L48.236 16.39c-.481-4.465-1.883-6.394-4-5.333Z"></path>
  <path fill="#D0D2E0" fill-rule="evenodd" d="M45.385 12.115c-.055-.012-.218-.032-.552.136-.726.364-2.66 1.276-5.29 2.519-4.009 1.892-9.636 4.549-15.086 7.197l22.306-6.533c-.249-1.53-.613-2.488-.983-2.985-.203-.272-.343-.322-.395-.334Zm2.534-1.258c.899 1.208 1.397 3.11 1.643 5.392l.12 1.109-38.405 11.247-1.012-2.45c7.086-3.858 20.849-10.356 28.388-13.916 2.511-1.185 4.333-2.045 4.986-2.372.724-.364 1.53-.54 2.349-.35.821.191 1.458.705 1.931 1.34Z" clip-rule="evenodd"></path>
  <path fill="#959AB4" d="M49.57 17.724c-2.986.574-26.857 6.95-37.334 9.334h38.667c.748-4.429.991-9.78-1.334-9.334Z"></path>
  <path fill="#959AB4" fill-rule="evenodd" d="M49.718 19.055c-1.443.293-6.715 1.648-13.123 3.293l-2.551.656c-3.497.897-7.196 1.843-10.683 2.72h26.4c.262-1.832.401-3.67.298-5.062-.063-.843-.205-1.358-.34-1.607Zm3 1.41c.148 1.996-.12 4.566-.5 6.815l-.188 1.111H12.236l-.296-2.633c5.217-1.187 13.784-3.372 21.44-5.337l2.626-.674c6.495-1.67 11.946-3.07 13.312-3.332a2.457 2.457 0 0 1 1.625.22c.5.26.843.666 1.076 1.072.446.774.627 1.785.7 2.757Z" clip-rule="evenodd"></path>
  <path fill="#D0D2E0" d="M9.57 31.058c0-1.243 0-1.864.202-2.354.271-.654.79-1.173 1.444-1.443.49-.203 1.11-.203 2.353-.203h37.334c1.242 0 1.863 0 2.354.203.653.27 1.172.79 1.443 1.443.203.49.203 1.111.203 2.354v18.666c0 1.243 0 1.864-.203 2.354a2.667 2.667 0 0 1-1.444 1.443c-.49.203-1.11.203-2.353.203H13.569c-1.242 0-1.863 0-2.354-.203a2.667 2.667 0 0 1-1.443-1.443c-.203-.49-.203-1.111-.203-2.354V31.058Z"></path>
  <path fill="#D0D2E0" fill-rule="evenodd" d="M13.527 25.725h37.418c.585 0 1.09 0 1.508.028.44.03.88.096 1.314.276a4 4 0 0 1 2.165 2.165c.18.434.246.874.276 1.314.028.418.028.922.028 1.507v18.752c0 .585 0 1.09-.028 1.508-.03.44-.096.88-.276 1.314a4 4 0 0 1-2.165 2.165c-.435.18-.875.245-1.314.276-.418.028-.923.028-1.508.028H13.527c-.585 0-1.09 0-1.507-.029-.44-.03-.88-.096-1.315-.276a4 4 0 0 1-2.164-2.164c-.18-.435-.246-.875-.276-1.314-.029-.418-.029-.923-.029-1.508V31.015c0-.585 0-1.09.029-1.507.03-.44.096-.88.276-1.314a4 4 0 0 1 2.164-2.165c.435-.18.875-.246 1.315-.276.417-.028.922-.028 1.507-.028ZM12.2 28.414c-.304.02-.42.056-.475.079a1.334 1.334 0 0 0-.722.721c-.023.056-.058.172-.079.476-.022.316-.022.728-.022 1.368v18.667c0 .64 0 1.052.022 1.368.02.304.056.42.08.475.135.327.394.587.72.722.056.023.172.058.476.079.316.022.729.022 1.368.022h37.334c.64 0 1.052 0 1.368-.022.304-.02.42-.056.475-.08.327-.135.587-.394.722-.72.023-.056.058-.172.08-.476.02-.316.021-.729.021-1.368V31.058c0-.64 0-1.052-.022-1.368-.02-.304-.056-.42-.08-.476a1.333 1.333 0 0 0-.72-.721c-.056-.023-.172-.059-.476-.08a22.51 22.51 0 0 0-1.368-.022H13.569c-.64 0-1.052.001-1.368.023Z" clip-rule="evenodd"></path>
  <path fill="#D0D2E0" d="M9.57 31.058c0-1.243 0-1.864.202-2.354.271-.654.79-1.173 1.444-1.443.49-.203 1.11-.203 2.353-.203h37.334c1.242 0 1.863 0 2.354.203.653.27 1.172.79 1.443 1.443.203.49.203 1.111.203 2.354v18.666c0 1.243 0 1.864-.203 2.354a2.667 2.667 0 0 1-1.444 1.443c-.49.203-1.11.203-2.353.203H13.569c-1.242 0-1.863 0-2.354-.203a2.667 2.667 0 0 1-1.443-1.443c-.203-.49-.203-1.111-.203-2.354V31.058Z"></path>
  <path fill="#D0D2E0" fill-rule="evenodd" d="M13.527 25.725h37.418c.585 0 1.09 0 1.508.028.44.03.88.096 1.314.276a4 4 0 0 1 2.165 2.165c.18.434.246.874.276 1.314.028.418.028.922.028 1.507v18.752c0 .585 0 1.09-.028 1.508-.03.44-.096.88-.276 1.314a4 4 0 0 1-2.165 2.165c-.435.18-.875.245-1.314.276-.418.028-.923.028-1.508.028H13.527c-.585 0-1.09 0-1.507-.029-.44-.03-.88-.096-1.315-.276a4 4 0 0 1-2.164-2.164c-.18-.435-.246-.875-.276-1.314-.029-.418-.029-.923-.029-1.508V31.015c0-.585 0-1.09.029-1.507.03-.44.096-.88.276-1.314a4 4 0 0 1 2.164-2.165c.435-.18.875-.246 1.315-.276.417-.028.922-.028 1.507-.028ZM12.2 28.414c-.304.02-.42.056-.475.079a1.334 1.334 0 0 0-.722.721c-.023.056-.058.172-.079.476-.022.316-.022.728-.022 1.368v18.667c0 .64 0 1.052.022 1.368.02.304.056.42.08.475.135.327.394.587.72.722.056.023.172.058.476.079.316.022.729.022 1.368.022h37.334c.64 0 1.052 0 1.368-.022.304-.02.42-.056.475-.08.327-.135.587-.394.722-.72.023-.056.058-.172.08-.476.02-.316.021-.729.021-1.368V31.058c0-.64 0-1.052-.022-1.368-.02-.304-.056-.42-.08-.476a1.333 1.333 0 0 0-.72-.721c-.056-.023-.172-.059-.476-.08a22.51 22.51 0 0 0-1.368-.022H13.569c-.64 0-1.052.001-1.368.023Z" clip-rule="evenodd"></path>
  <path fill="#2B3151" fill-rule="evenodd" d="M26.13 41.102c0-.736.596-1.333 1.333-1.333h2.548a1.333 1.333 0 0 1 0 2.666h-2.548a1.333 1.333 0 0 1-1.334-1.333zm0-7.644c0-.736.596-1.333 1.333-1.333h9.554a1.333 1.333 0 0 1 0 2.667h-9.554a1.333 1.333 0 0 1-1.334-1.334zm0 3.823c0-.737.596-1.334 1.333-1.334h9.554a1.333 1.333 0 0 1 0 2.667h-9.554a1.333 1.333 0 0 1-1.334-1.333z" clip-rule="evenodd"></path>
  <path fill="#2B3151" fill-rule="evenodd" d="M26.52 40.16c.52-.521 1.365-.521 1.886 0l6.756 6.756a1.333 1.333 0 1 1-1.886 1.885l-6.756-6.756a1.333 1.333 0 0 1 0-1.885Z" clip-rule="evenodd"></path>
  <path fill="#2B3151" fill-rule="evenodd" d="M32.5 37.28c0-1.276-1.155-2.488-2.808-2.488v-2.667c2.92 0 5.474 2.21 5.474 5.155 0 2.946-2.553 5.155-5.474 5.155V39.77c1.653 0 2.807-1.213 2.807-2.489Z" clip-rule="evenodd"></path>
</svg>
