<svg xmlns="http://www.w3.org/2000/svg" width="64" height="64" fill="none" id="currency">
  <path fill="#2B3151" fill-rule="evenodd" d="M13.527 25.725h37.418c.585 0 1.09 0 1.508.029.44.03.88.096 1.314.276a4 4 0 0 1 2.165 2.164c.18.435.246.875.276 1.315.028.417.028.922.028 1.507v18.752c0 .585 0 1.09-.028 1.507-.03.44-.096.88-.276 1.314a4 4 0 0 1-2.165 2.165c-.435.18-.875.246-1.314.276-.418.029-.923.028-1.508.028H13.527c-.585 0-1.09 0-1.507-.028-.44-.03-.88-.096-1.315-.276a4 4 0 0 1-2.164-2.165c-.18-.434-.246-.874-.276-1.314-.029-.418-.029-.922-.029-1.507V31.016c0-.585 0-1.09.029-1.507.03-.44.096-.88.276-1.315a4 4 0 0 1 2.164-2.164c.435-.18.875-.246 1.315-.276.417-.029.922-.029 1.507-.029ZM12.2 28.414c-.304.02-.42.056-.475.08a1.334 1.334 0 0 0-.722.72c-.023.056-.058.172-.079.476-.022.316-.022.729-.022 1.368v18.667c0 .64 0 1.052.022 1.368.02.304.056.42.08.476.135.326.394.586.72.721.056.023.172.059.476.08.316.021.729.022 1.368.022h37.334c.64 0 1.052-.001 1.368-.023.304-.02.42-.056.475-.079.327-.135.587-.395.722-.721.023-.056.058-.172.08-.476.02-.316.021-.728.021-1.368V31.058c0-.64 0-1.052-.022-1.368-.02-.304-.056-.42-.08-.475a1.333 1.333 0 0 0-.72-.722c-.056-.023-.172-.058-.476-.079a22.614 22.614 0 0 0-1.368-.022H13.569c-.64 0-1.052 0-1.368.022Z" clip-rule="evenodd"></path>
  <path fill="#445CDA" fill-rule="evenodd" d="M26.13 41.102c0-.736.596-1.333 1.333-1.333h2.548a1.333 1.333 0 0 1 0 2.666h-2.548a1.333 1.333 0 0 1-1.334-1.333zm0-7.644c0-.736.596-1.333 1.333-1.333h9.554a1.333 1.333 0 0 1 0 2.667h-9.554a1.333 1.333 0 0 1-1.334-1.334zm0 3.822c0-.736.596-1.333 1.333-1.333h9.554a1.333 1.333 0 0 1 0 2.666h-9.554a1.333 1.333 0 0 1-1.334-1.333z" clip-rule="evenodd"></path>
  <path fill="#445CDA" fill-rule="evenodd" d="M26.52 40.16c.52-.522 1.365-.522 1.886 0l6.756 6.755a1.333 1.333 0 0 1-1.886 1.886l-6.756-6.756a1.333 1.333 0 0 1 0-1.886Z" clip-rule="evenodd"></path>
  <path fill="#445CDA" fill-rule="evenodd" d="M32.5 37.28c0-1.276-1.155-2.488-2.808-2.488v-2.667c2.92 0 5.474 2.21 5.474 5.155 0 2.946-2.553 5.155-5.474 5.155V39.77c1.653 0 2.807-1.213 2.807-2.489Z" clip-rule="evenodd"></path>
  <path fill="#2B3151" fill-rule="evenodd" d="M49.718 19.055c.136.249.278.764.34 1.607.125 1.675-.102 3.995-.47 6.174a1.333 1.333 0 0 0 2.63.445c.38-2.25.648-4.82.5-6.816-.072-.972-.253-1.984-.699-2.758-.233-.406-.577-.81-1.076-1.072a2.457 2.457 0 0 0-1.625-.22c-1.366.263-6.817 1.663-13.312 3.332l-2.626.674c-7.656 1.965-16.223 4.15-21.44 5.337a1.333 1.333 0 0 0 .592 2.6c5.26-1.197 13.867-3.392 21.511-5.354l2.552-.655c6.408-1.646 11.68-3 13.123-3.294Z" clip-rule="evenodd"></path>
  <path fill="#2B3151" fill-rule="evenodd" d="M45.385 12.116c-.055-.013-.218-.032-.552.135-.726.364-2.66 1.277-5.29 2.52-7.594 3.584-21.002 9.915-28.003 13.726a1.333 1.333 0 1 1-1.275-2.343C17.351 22.297 31.114 15.8 38.653 12.24c2.511-1.186 4.333-2.046 4.986-2.373.724-.363 1.53-.54 2.349-.35.821.192 1.458.705 1.931 1.34.899 1.208 1.397 3.11 1.643 5.392a1.333 1.333 0 0 1-2.652.286c-.235-2.184-.678-3.479-1.13-4.086-.203-.272-.343-.321-.395-.333Z" clip-rule="evenodd"></path>
</svg>
